<svg width="599" height="599" viewBox="0 0 599 599" fill="none" xmlns="http://www.w3.org/2000/svg">
    <g>
        <path d="M554.854 15.9588C553.814 14.1322 552.35 12.5825 550.585 11.4411C548.82 10.2996 546.806 9.59984 544.715 9.40098C542.623 9.20213 540.515 9.51003 538.568 10.2986C536.622 11.0873 534.894 12.3334 533.531 13.9316C457.631 104.259 376.637 140.458 308.233 155.961C321.69 136.623 335.754 111.219 338.746 81.4261C339.004 78.8636 338.5 76.2812 337.297 74.0027C336.095 71.7241 334.247 69.8507 331.985 68.6173C329.723 67.3838 327.148 66.8451 324.583 67.0687C322.018 67.2923 319.577 68.2683 317.565 69.8742C251.19 122.955 214.448 129.171 178.846 137.514C143.243 145.857 108.291 157.641 62.2007 216.271C62.0134 216.522 61.8351 216.779 61.6662 217.042C8.46934 295.925 6.82749 396.708 83.9215 496.072C169.859 606.833 288.265 609.327 373.994 564.138C494.913 504.048 543.667 369.971 576.052 276.752C577.053 273.866 577.011 270.719 575.935 267.857C574.858 264.996 572.815 262.601 570.159 261.088C567.502 259.574 564.401 259.039 561.393 259.573C558.385 260.107 555.66 261.678 553.69 264.013C531.531 290.368 505.814 311.237 483.293 324.263C472.524 330.491 468.908 329.087 460.648 331.447C443.491 292.96 581.785 149.188 556.33 19.861C556.05 18.4899 555.552 17.1723 554.854 15.9588Z" fill="#FF9933" fill-opacity="0.576471"/>
        <path d="M92 458.46L118.711 329.565M92 458.46L201.272 522M92 458.46L132.673 452.409M118.711 329.565L367 263M118.711 329.565L136.923 374.951M367 263L201.272 522M367 263L214.627 365.269M201.272 522V458.46M214.627 365.269L136.923 374.951M214.627 365.269L201.272 458.46M136.923 374.951L132.673 452.409M132.673 452.409L201.272 458.46" stroke="#FF9933" stroke-width="17" stroke-linejoin="round"/>
    </g>
    <defs>
        <clipPath>
            <rect width="599" height="599" fill="white"/>
        </clipPath>
    </defs>
</svg>
