<svg width="2374" height="709" viewBox="0 0 2374 709" fill="none" xmlns="http://www.w3.org/2000/svg">
    <g clip-path="url(#clip0_1455_7)">
        <path d="M609.854 70.9588C608.814 69.1322 607.35 67.5825 605.585 66.4411C603.82 65.2996 601.806 64.5998 599.715 64.401C597.623 64.2021 595.515 64.51 593.568 65.2986C591.622 66.0873 589.894 67.3334 588.531 68.9316C512.631 159.259 431.637 195.458 363.233 210.961C376.69 191.623 390.754 166.219 393.746 136.426C394.004 133.864 393.5 131.281 392.297 129.003C391.095 126.724 389.247 124.851 386.985 123.617C384.723 122.384 382.148 121.845 379.583 122.069C377.018 122.292 374.577 123.268 372.565 124.874C306.19 177.955 269.448 184.171 233.846 192.514C198.243 200.857 163.291 212.641 117.201 271.271C117.013 271.522 116.835 271.779 116.666 272.042C63.4693 350.925 61.8275 451.708 138.922 551.072C224.859 661.833 343.265 664.327 428.994 619.138C549.913 559.048 598.667 424.971 631.052 331.752C632.053 328.866 632.011 325.719 630.935 322.857C629.858 319.996 627.815 317.601 625.159 316.088C622.502 314.574 619.401 314.039 616.393 314.573C613.385 315.107 610.66 316.678 608.69 319.013C586.531 345.368 560.814 366.237 538.293 379.263C527.524 385.491 523.908 384.087 515.648 386.447C498.491 347.96 636.785 204.188 611.33 74.861C611.05 73.4899 610.552 72.1723 609.854 70.9588Z" fill="#FF9933" fill-opacity="0.576471"/>
        <path d="M147 513.46L173.711 384.565M147 513.46L256.272 577M147 513.46L187.673 507.409M173.711 384.565L422 318M173.711 384.565L191.923 429.951M422 318L256.272 577M422 318L269.627 420.269M256.272 577V513.46M269.627 420.269L191.923 429.951M269.627 420.269L256.272 513.46M191.923 429.951L187.673 507.409M187.673 507.409L256.272 513.46" stroke="#FF9933" stroke-width="17" stroke-linejoin="round"/>
    </g>
    <rect x="706" y="147" width="1613" height="415" fill="black"/>
    <path d="M771.969 499V211.109H935.641V243.141H807.125V340.797H918.062V372.828H807.125V499H771.969ZM1101.27 502.125C1086.81 502.125 1074.25 499.26 1063.57 493.531C1052.89 487.672 1044.56 479.599 1038.57 469.312C1032.71 459.026 1029.78 447.177 1029.78 433.766V198.219H1063.38V430.25C1063.38 442.099 1066.76 451.865 1073.53 459.547C1080.43 467.099 1089.94 470.875 1102.05 470.875C1110.51 470.875 1118.91 469.117 1127.24 465.602C1135.71 461.956 1142.93 457.724 1148.92 452.906L1161.81 483.766C1153.22 489.234 1143.65 493.661 1133.1 497.047C1122.68 500.432 1112.07 502.125 1101.27 502.125ZM1285.25 499V291.969H1318.84V499H1285.25ZM1221.19 322.438V291.969H1318.84V322.438H1221.19ZM1302.83 258.766C1295.67 258.766 1289.61 256.357 1284.66 251.539C1279.85 246.591 1277.44 240.536 1277.44 233.375C1277.44 226.214 1279.85 220.224 1284.66 215.406C1289.61 210.458 1295.67 207.984 1302.83 207.984C1309.99 207.984 1315.98 210.458 1320.8 215.406C1325.74 220.224 1328.22 226.214 1328.22 233.375C1328.22 240.536 1325.74 246.591 1320.8 251.539C1315.98 256.357 1309.99 258.766 1302.83 258.766ZM1434.47 499V291.969H1467.67V317.359H1475.48L1461.81 331.812C1465.98 319.312 1474.18 309.026 1486.42 300.953C1498.79 292.88 1513.24 288.844 1529.78 288.844C1551.14 288.844 1568.06 295.875 1580.56 309.938C1593.06 324 1599.31 342.75 1599.31 366.188V499H1565.72V373.219C1565.72 357.203 1561.49 344.378 1553.02 334.742C1544.69 324.977 1533.17 320.094 1518.45 320.094C1508.69 320.094 1500.03 322.307 1492.48 326.734C1484.92 331.031 1478.93 337.151 1474.51 345.094C1470.21 353.036 1468.06 362.411 1468.06 373.219V499H1434.47ZM1771.97 502.125C1757.78 502.125 1745.08 499.26 1733.88 493.531C1722.68 487.672 1713.83 479.599 1707.32 469.312C1700.94 459.026 1697.75 447.177 1697.75 433.766V225.562H1731.34V430.25C1731.34 442.099 1735.38 451.865 1743.45 459.547C1751.66 467.099 1761.68 470.875 1773.53 470.875C1781.73 470.875 1789.87 469.182 1797.95 465.797C1806.15 462.281 1813.24 458.115 1819.23 453.297L1832.12 484.156C1823.53 489.625 1814.03 493.987 1803.61 497.242C1793.32 500.497 1782.78 502.125 1771.97 502.125ZM1649.31 322.438V291.969H1819.23V322.438H1649.31ZM1966.5 502.125C1958.56 502.125 1951.72 499.326 1945.99 493.727C1940.39 488.128 1937.59 481.161 1937.59 472.828C1937.59 464.755 1940.33 457.984 1945.8 452.516C1951.4 447.047 1958.3 444.312 1966.5 444.312C1974.7 444.312 1981.54 447.047 1987.01 452.516C1992.61 457.984 1995.41 464.755 1995.41 472.828C1995.41 481.161 1992.61 488.128 1987.01 493.727C1981.54 499.326 1974.7 502.125 1966.5 502.125Z" fill="white"/>
    <defs>
        <clipPath id="clip0_1455_7">
            <rect width="599" height="599" fill="white" transform="translate(55 55)"/>
        </clipPath>
    </defs>
</svg>
